<svg width="560" height="600" viewBox="0 0 560 600" fill="none" xmlns="http://www.w3.org/2000/svg">
<mask id="mask0_1260_9464" style="mask-type:alpha" maskUnits="userSpaceOnUse" x="0" y="0" width="560" height="600">
<rect width="560" height="600" fill="#D9D9D9"/>
</mask>
<g mask="url(#mask0_1260_9464)">
<rect x="0.984375" y="-178.5" width="1.62437" height="960" fill="#F0F0F0"/>
<rect x="25.3503" y="-178.5" width="1.62437" height="960" fill="#F0F0F0"/>
<rect x="49.7157" y="-178.5" width="1.62437" height="960" fill="#F0F0F0"/>
<rect x="74.0809" y="-178.5" width="1.62437" height="960" fill="#F0F0F0"/>
<rect x="98.4468" y="-178.5" width="1.62437" height="960" fill="#F0F0F0"/>
<rect x="122.812" y="-178.5" width="1.62437" height="960" fill="#F0F0F0"/>
<rect x="147.178" y="-178.5" width="1.62437" height="960" fill="#F0F0F0"/>
<rect x="171.543" y="-178.5" width="1.62437" height="960" fill="#F0F0F0"/>
<rect x="195.909" y="-178.5" width="1.62437" height="960" fill="#F0F0F0"/>
<rect x="220.274" y="-178.5" width="1.62437" height="960" fill="#F0F0F0"/>
<rect x="244.64" y="-178.5" width="1.62437" height="960" fill="#F0F0F0"/>
<rect x="269.005" y="-178.5" width="1.62437" height="960" fill="#F0F0F0"/>
<rect x="293.371" y="-178.5" width="1.62437" height="960" fill="#F0F0F0"/>
<rect x="317.736" y="-178.5" width="1.62437" height="960" fill="#F0F0F0"/>
<rect x="342.102" y="-178.5" width="1.62437" height="960" fill="#F0F0F0"/>
<rect x="366.467" y="-178.5" width="1.62437" height="960" fill="#F0F0F0"/>
<rect x="390.832" y="-178.5" width="1.62437" height="960" fill="#F0F0F0"/>
<rect x="415.198" y="-178.5" width="1.62437" height="960" fill="#F0F0F0"/>
<rect x="439.564" y="-178.5" width="1.62437" height="960" fill="#F0F0F0"/>
<rect x="463.929" y="-178.5" width="1.62437" height="960" fill="#F0F0F0"/>
<rect x="488.294" y="-178.5" width="1.62437" height="960" fill="#F0F0F0"/>
<rect x="512.66" y="-178.5" width="1.62437" height="960" fill="#F0F0F0"/>
<rect x="537.025" y="-178.5" width="1.62437" height="960" fill="#F0F0F0"/>
<rect x="558.391" y="-178.5" width="1.62437" height="960" fill="#F0F0F0"/>
<rect x="-198" y="600.881" width="1.62437" height="960" transform="rotate(-90 -198 600.881)" fill="#F0F0F0"/>
<rect x="-198" y="582.516" width="1.62437" height="960" transform="rotate(-90 -198 582.516)" fill="#F0F0F0"/>
<rect x="-198" y="558.15" width="1.62437" height="960" transform="rotate(-90 -198 558.15)" fill="#F0F0F0"/>
<rect x="-198" y="533.785" width="1.62437" height="960" transform="rotate(-90 -198 533.785)" fill="#F0F0F0"/>
<rect x="-198" y="509.419" width="1.62437" height="960" transform="rotate(-90 -198 509.419)" fill="#F0F0F0"/>
<rect x="-198" y="485.053" width="1.62437" height="960" transform="rotate(-90 -198 485.053)" fill="#F0F0F0"/>
<rect x="-198" y="460.688" width="1.62437" height="960" transform="rotate(-90 -198 460.688)" fill="#F0F0F0"/>
<rect x="-198" y="436.322" width="1.62437" height="960" transform="rotate(-90 -198 436.322)" fill="#F0F0F0"/>
<rect x="-198" y="411.957" width="1.62437" height="960" transform="rotate(-90 -198 411.957)" fill="#F0F0F0"/>
<rect x="-198" y="387.591" width="1.62437" height="960" transform="rotate(-90 -198 387.591)" fill="#F0F0F0"/>
<rect x="-198" y="363.226" width="1.62437" height="960" transform="rotate(-90 -198 363.226)" fill="#F0F0F0"/>
<rect x="-198" y="338.86" width="1.62437" height="960" transform="rotate(-90 -198 338.86)" fill="#F0F0F0"/>
<rect x="-198" y="314.495" width="1.62437" height="960" transform="rotate(-90 -198 314.495)" fill="#F0F0F0"/>
<rect x="-198" y="290.129" width="1.62437" height="960" transform="rotate(-90 -198 290.129)" fill="#F0F0F0"/>
<rect x="-198" y="265.764" width="1.62437" height="960" transform="rotate(-90 -198 265.764)" fill="#F0F0F0"/>
<rect x="-198" y="241.398" width="1.62437" height="960" transform="rotate(-90 -198 241.398)" fill="#F0F0F0"/>
<rect x="-198" y="217.033" width="1.62437" height="960" transform="rotate(-90 -198 217.033)" fill="#F0F0F0"/>
<rect x="-198" y="192.667" width="1.62437" height="960" transform="rotate(-90 -198 192.667)" fill="#F0F0F0"/>
<rect x="-198" y="168.302" width="1.62437" height="960" transform="rotate(-90 -198 168.302)" fill="#F0F0F0"/>
<rect x="-198" y="143.937" width="1.62437" height="960" transform="rotate(-90 -198 143.937)" fill="#F0F0F0"/>
<rect x="-198" y="119.571" width="1.62437" height="960" transform="rotate(-90 -198 119.571)" fill="#F0F0F0"/>
<rect x="-198" y="95.2061" width="1.62437" height="960" transform="rotate(-90 -198 95.2061)" fill="#F0F0F0"/>
<rect x="-198" y="70.8403" width="1.62437" height="960" transform="rotate(-90 -198 70.8403)" fill="#F0F0F0"/>
<rect x="-198" y="46.4746" width="1.62437" height="960" transform="rotate(-90 -198 46.4746)" fill="#F0F0F0"/>
<rect x="-198" y="22.1094" width="1.62437" height="960" transform="rotate(-90 -198 22.1094)" fill="#F0F0F0"/>
<rect x="-198" y="0.744141" width="1.62437" height="960" transform="rotate(-90 -198 0.744141)" fill="#F0F0F0"/>
</g>
</svg>
