<svg width="20" height="25" viewBox="0 0 20 25" fill="none" xmlns="http://www.w3.org/2000/svg">
<path d="M11.0351 2.17547C12.647 0.0105544 14.8879 0 14.8879 0C14.8879 0 15.2212 2.03539 13.6199 3.99612C11.91 6.08975 9.96657 5.74716 9.96657 5.74716C9.96657 5.74716 9.60164 4.1006 11.0351 2.17547ZM10.1716 7.17295C11.0008 7.17295 12.5399 6.01139 14.5432 6.01139C17.9915 6.01139 19.348 8.51171 19.348 8.51171C19.348 8.51171 16.6948 9.894 16.6948 13.2481C16.6948 17.0318 20 18.3357 20 18.3357C20 18.3357 17.6896 24.9623 14.5688 24.9623C13.1355 24.9623 12.0212 23.978 10.5109 23.978C8.97188 23.978 7.4446 24.999 6.44987 24.999C3.60017 24.9991 0 18.7131 0 13.6602C0 8.68892 3.0473 6.08104 5.90555 6.08104C7.76367 6.08104 9.20559 7.17295 10.1716 7.17295Z" fill="white"/>
</svg>
